PathFileType	4	(X/Y/Z)	E:\Qualisys_Data\Carbon_Farble_Plate\Data\Amateur_Runner\S2\T2\S2T2V12_c3d.trc
DataRate	CameraRate	NumFrames	NumMarkers	Units	OrigDataRate	OrigDataStartFrame	OrigNumFrames
200.000000	200.000000	4	39	mm	200.000000	206	331
Frame#	Time	LSHO			RSHO			LICST			RICST			LASIS			LHEEL			RASIS			LTROC			RTROC			SACR			LTH1			LSK4			LTH2			LTH3			RHM5			LSK2			LTH4			RTH1			LTOE			RTH2			RTH3			RTH4			LLEP			RLEP			LSK1			LSK3			RSK1			LHM5			RSK2			LFT1			RSK3			RSK4			LLME			RLME			RTOE			RHEEL			RFT1			RFT2			LFT2			
		X1	Y1	Z1	X2	Y2	Z2	X3	Y3	Z3	X4	Y4	Z4	X5	Y5	Z5	X6	Y6	Z6	X7	Y7	Z7	X8	Y8	Z8	X9	Y9	Z9	X10	Y10	Z10	X11	Y11	Z11	X12	Y12	Z12	X13	Y13	Z13	X14	Y14	Z14	X15	Y15	Z15	X16	Y16	Z16	X17	Y17	Z17	X18	Y18	Z18	X19	Y19	Z19	X20	Y20	Z20	X21	Y21	Z21	X22	Y22	Z22	X23	Y23	Z23	X24	Y24	Z24	X25	Y25	Z25	X26	Y26	Z26	X27	Y27	Z27	X28	Y28	Z28	X29	Y29	Z29	X30	Y30	Z30	X31	Y31	Z31	X32	Y32	Z32	X33	Y33	Z33	X34	Y34	Z34	X35	Y35	Z35	X36	Y36	Z36	X37	Y37	Z37	X38	Y38	Z38	X39	Y39	Z39	

207	1.03	933.92822265625	1468.40087890625	-454.5841369628906	975.8353271484376	1437.068725585938	-143.3904418945312	896.7200927734375	1004.926208496094	-458.7157897949219	906.161865234375	982.9398193359376	-156.4208984375	953.57568359375	954.3165283203124	-439.4432678222656	721.2255859375	284.8374938964844	-359.1474914550781	962.4522705078124	935.0094604492188	-180.3691711425781	839.209716796875	875.8790283203125	-472.4262084960938	809.0720825195312	887.459228515625	-158.3379516601562	811.1641235351562	1037.0673828125	-301.2564392089844	1049.26953125	700.3428344726562	-464.7723999023438	879.5154418945312	405.6485290527344	-445.2583923339844	974.9124145507812	662.1692504882812	-473.2599487304688	1092.537231445312	608.7362060546875	-443.1524658203125	641.0226440429688	63.07402420043945	-187.9202575683594	953.4630737304688	472.2377014160156	-456.4380493164062	1015.905883789062	572.5604248046875	-448.7675170898438	893.3646850585938	623.9271850585938	-156.85546875	902.1127319335938	116.3581161499023	-393.4136962890625	817.02587890625	641.070556640625	-153.9709320068359	870.1336669921875	526.9523315429688	-181.3285064697266	792.7464599609375	547.9636840820312	-172.7271575927734	1063.568603515625	533.3297119140625	-443.5214538574219	806.5900268554688	494.1614074707031	-172.6280364990234	1005.880737304688	415.2139282226562	-444.4224548339844	931.7533569335938	348.0356750488281	-437.2044677734375	773.5294799804688	373.2543640136719	-175.8219909667969	844.4727172851562	140.4415130615234	-447.2580871582031	707.4954223632812	417.647216796875	-163.1808319091797	709.8203125	255.6715850830078	-337.1799621582031	716.3380737304688	289.4101257324219	-186.5710296630859	652.2305297851562	335.9915771484375	-176.7769775390625	775.4652099609375	256.3628845214844	-420.7356262207031	575.8026733398438	158.4917755126953	-214.4527435302734	710.0765380859375	52.14973068237305	-250.8129577636719	505.3023376464844	170.3244476318359	-272.64990234375	508.4712524414062	137.8570098876953	-301.4684753417969	491.525390625	144.7448272705078	-249.3262481689453	700.4290161132812	259.0614929199219	-389.9696350097656
208	1.035	947.5983276367188	1473.389282226562	-454.4613952636719	992.8049926757812	1442.367431640625	-144.4938354492188	913.012939453125	1010.360412597656	-458.6756896972656	923.8974609375	987.1488647460938	-157.0195617675781	969.7569580078124	959.7424926757812	-439.7788391113281	747.8663330078125	274.4425964355469	-357.3017883300781	980.1920776367188	939.2928466796876	-181.0475921630859	856.3775634765625	881.6165771484375	-473.4854125976562	825.9823608398438	892.9144287109375	-158.0015411376953	827.734375	1041.649658203125	-300.8800354003906	1067.348022460938	706.004150390625	-463.4080200195312	900.7406005859376	402.4769287109375	-444.9439392089844	993.3511962890624	668.0333251953125	-473.3182373046875	1110.442993164062	614.8233032226562	-440.64892578125	643.0100708007812	63.77075958251953	-187.4748077392578	972.1809692382812	471.9840393066406	-455.9387817382812	1034.194946289062	578.3473510742188	-449.0394897460938	905.6058349609376	628.4739990234375	-156.1199340820312	936.8218383789062	115.0549850463867	-391.8841247558594	829.2291259765625	647.2434692382812	-153.4729461669922	880.1298217773438	531.9722900390625	-180.1401977539062	803.4053344726562	554.2523803710938	-171.7709503173828	1080.612548828125	538.6405639648438	-442.787109375	815.3853149414062	500.442626953125	-171.1410369873047	1026.84912109375	417.4019470214844	-443.326171875	955.7919921875	346.6458435058594	-435.9956665039062	780.5155029296875	380.332275390625	-173.5763244628906	877.4825439453125	135.9100799560547	-445.2317810058594	714.7620239257812	424.7870788574219	-161.4203948974609	737.92626953125	244.9954681396484	-334.8324890136719	724.1993408203125	295.7265319824219	-184.2895355224609	660.0441284179688	342.34521484375	-175.2331695556641	803.4229736328125	248.3769378662109	-418.9934997558594	582.9716186523438	163.9668731689453	-212.8370361328125	712.2346801757812	51.8203239440918	-250.0761871337891	516.6395874023438	180.3911590576172	-270.771728515625	516.3480834960938	147.0993194580078	-300.6745300292969	499.4206237792969	153.8659362792969	-248.1271667480469	728.2283935546875	247.9790649414062	-387.9588317871094
209	1.04	961.46826171875	1478.056640625	-454.1595458984375	1009.426635742188	1447.42919921875	-145.6136322021484	929.3345336914062	1015.769836425781	-458.728515625	941.7180786132812	991.7542724609376	-157.4695281982422	986.4718627929688	964.8167724609376	-439.76708984375	774.9556274414062	264.6268920898438	-355.2488708496094	997.8883666992188	943.4426879882812	-181.7664794921875	873.3173828125	887.273193359375	-474.2223510742188	842.7799072265625	898.004150390625	-157.8186798095703	844.6600341796875	1046.205078125	-300.4055480957031	1085.321411132812	711.3760986328125	-462.17041015625	922.8445434570312	398.6853637695312	-443.2948303222656	1011.444946289062	673.6661987304688	-473.4705200195312	1128.087646484375	620.0300903320312	-439.2891540527344	646.0516357421875	65.2998275756836	-186.281005859375	990.577392578125	471.0900573730469	-455.6966857910156	1051.655517578125	583.56787109375	-449.1080932617188	917.594970703125	632.840087890625	-155.4923095703125	971.1653442382812	113.781852722168	-390.3927307128906	841.6177978515625	652.737548828125	-152.5579833984375	890.0734252929688	536.9373779296875	-178.9650115966797	813.680419921875	560.435302734375	-170.6282501220703	1097.3369140625	543.1573486328125	-442.0636291503906	824.343017578125	506.7066955566406	-169.7635040283203	1047.630737304688	418.9990234375	-442.8469543457031	979.8240356445312	345.4940795898438	-434.7957763671875	788.4931640625	387.2893676757812	-171.4681243896484	910.60888671875	131.6710815429688	-443.2821655273438	722.1870727539062	431.3352966308594	-159.981201171875	766.9110107421875	234.6639709472656	-332.7898254394531	732.0913696289062	302.5038757324219	-181.6262512207031	667.7444458007812	348.8419189453125	-173.7886810302734	831.6788940429688	240.7310638427734	-416.8965148925781	590.9728393554688	169.5759735107422	-210.9227600097656	715.02880859375	51.0770263671875	-249.1013641357422	526.251953125	189.4101867675781	-269.0798645019531	524.5427856445312	156.6215057373047	-299.8101806640625	507.8984375	163.5687255859375	-247.0829620361328	756.7138061523438	236.6135559082031	-385.7046508789062
210	1.045	975.5142211914062	1482.697875976562	-454.0054931640625	1025.986450195312	1452.218627929688	-146.6360321044922	945.52001953125	1020.805236816406	-458.8836059570312	959.2035522460938	996.0602416992188	-158.0634613037109	1002.592895507812	969.7122802734376	-440.19921875	801.373291015625	253.5433197021484	-354.4672241210938	1015.198791503906	947.5653076171876	-182.4010162353516	890.0195922851562	892.9046630859375	-474.9639587402344	860.1732177734375	903.3370361328124	-157.2125549316406	861.8662719726562	1050.820434570312	-300.1755676269531	1103.140747070312	716.6206665039062	-461.2355651855469	944.399658203125	395.1962890625	-442.3676147460938	1029.253540039062	678.8822021484375	-473.7931518554688	1144.942993164062	624.64306640625	-437.8518371582031	649.5082397460938	66.83365631103516	-185.4492797851562	1009.176086425781	470.22998046875	-455.4684143066406	1068.648803710938	588.9109497070312	-448.7732849121094	929.8812866210938	637.1195068359375	-155.1684265136719	1005.458068847656	112.864616394043	-388.8704528808594	854.3204956054688	658.4693603515625	-151.3648986816406	900.1393432617188	541.5070190429688	-177.7892761230469	824.1781616210938	567.3533325195312	-169.55517578125	1114.033447265625	547.826904296875	-441.8448791503906	833.6324462890625	513.1036987304688	-168.4138488769531	1068.3671875	420.9324951171875	-442.4523315429688	1003.841613769531	344.5427551269531	-433.5836791992188	796.4335327148438	394.0782470703125	-169.4527435302734	943.9964599609376	127.7670593261719	-441.7001037597656	730.4443359375	438.3277587890625	-158.5577239990234	796.9295043945312	223.3871154785156	-330.5550537109375	740.340576171875	309.2825622558594	-179.1317596435547	676.0352172851562	355.3934631347656	-172.2175903320312	860.267333984375	232.9487609863281	-414.8377380371094	599.374755859375	174.8256988525391	-208.8300323486328	717.9267578125	50.38508224487305	-247.997314453125	537.0497436523438	198.8302612304688	-267.3340454101562	533.6150512695312	166.2282104492188	-298.2055053710938	517.02734375	173.1222839355469	-245.7235412597656	785.3919677734375	225.0838775634766	-383.1905517578125
